<svg 
 xmlns="http://www.w3.org/2000/svg"
 xmlns:xlink="http://www.w3.org/1999/xlink"
 width="113px" height="19px">
<path fill-rule="evenodd"  fill="rgb(255, 255, 255)"
 d="M105.872,12.101 L105.872,19.000 L100.998,19.000 L100.998,12.101 L94.150,0.254 L99.823,0.254 L103.422,6.503 L107.047,0.254 L112.720,0.254 L105.872,12.101 ZM85.647,14.026 C86.922,14.026 88.021,13.576 88.796,12.776 L92.295,16.225 C90.596,17.925 88.246,19.000 85.647,19.000 C80.473,19.000 76.274,14.801 76.274,9.627 C76.274,4.453 80.473,0.254 85.647,0.254 C88.221,0.254 90.546,1.279 92.245,2.979 L88.796,6.453 C88.021,5.678 86.922,5.228 85.647,5.228 C83.098,5.228 81.248,7.077 81.248,9.627 C81.248,12.177 83.098,14.026 85.647,14.026 ZM63.323,10.127 L63.323,19.000 L58.399,19.000 L58.399,0.254 L60.399,0.254 L69.271,9.102 L69.271,0.254 L74.195,0.254 L74.195,19.000 L72.171,19.000 L63.323,10.127 ZM47.247,19.000 C43.123,19.000 39.849,15.725 39.849,11.601 L39.849,0.254 L44.798,0.254 L44.798,11.527 C44.798,12.876 45.898,13.976 47.247,13.976 C48.597,13.976 49.697,12.876 49.697,11.527 L49.697,0.254 L54.646,0.254 L54.646,11.601 C54.646,15.725 51.321,19.000 47.247,19.000 ZM27.572,19.000 C22.398,19.000 18.224,14.826 18.224,9.652 C18.224,4.478 22.398,0.254 27.572,0.254 C32.746,0.254 36.945,4.478 36.945,9.652 C36.945,14.826 32.746,19.000 27.572,19.000 ZM27.572,5.153 C25.123,5.153 23.123,7.153 23.123,9.627 C23.123,12.076 25.123,14.101 27.572,14.101 C30.047,14.101 32.046,12.076 32.046,9.627 C32.046,7.153 30.047,5.153 27.572,5.153 ZM10.147,19.000 L0.900,19.000 L0.900,0.254 L9.173,0.254 C12.172,0.254 14.721,2.829 14.721,5.828 C14.721,7.102 14.246,8.277 13.521,9.202 C14.796,10.227 15.646,11.801 15.646,13.501 C15.646,16.475 13.122,19.000 10.147,19.000 ZM8.198,4.328 L5.823,4.328 L5.823,7.577 L8.198,7.577 C9.098,7.577 9.822,6.853 9.822,5.953 C9.822,5.053 9.098,4.328 8.198,4.328 ZM9.123,11.701 L5.823,11.701 L5.823,14.951 L9.123,14.951 C10.022,14.951 10.747,14.226 10.747,13.326 C10.747,12.426 9.972,11.701 9.123,11.701 Z"/>
</svg>